<?xml version="1.0" encoding="UTF-8"?>
<!DOCTYPE svg PUBLIC "-//W3C//DTD SVG 1.1//EN" "http://www.w3.org/Graphics/SVG/1.1/DTD/svg11.dtd">
<!-- Creator: CorelDRAW -->
<svg xmlns="http://www.w3.org/2000/svg" xml:space="preserve" width="6.82666in" height="6.82666in" style="shape-rendering:geometricPrecision; text-rendering:geometricPrecision; image-rendering:optimizeQuality; fill-rule:evenodd; clip-rule:evenodd"
viewBox="0 0 6.82666 6.82666"
 xmlns:xlink="http://www.w3.org/1999/xlink">
 <defs>
  <style type="text/css">
   <![CDATA[
    .fil1 {fill:none}
    .fil0 {fill:#424242}
    .fil3 {fill:#FFFFFE}
    .fil2 {fill:#FFFFFE;fill-rule:nonzero}
   ]]>
  </style>
 </defs>
 <rect class="fil0" width="6.82666" height="6.82666"/>
 <g id="Layer_x0020_1">
  <metadata id="CorelCorpID_0Corel-Layer"/>
  <g id="_377762752">
   <rect id="_377762800" class="fil1" width="6.82666" height="6.82666"/>
   <rect id="_377762392" class="fil1" x="0.853331" y="0.853331" width="5.12" height="5.12"/>
  </g>
  <path class="fil2" d="M2.9094 3.95834l-0.849547 -1.54165 -0.130882 -0.237508 0.257551 0.0854213 1.67074 0.554134 0.0399843 0.0132638 0.0200157 0.0363189 0.849547 1.54165 0.130882 0.237508 -0.257551 -0.0854213 -1.67074 -0.554134 -0.0399843 -0.0132638 -0.0200157 -0.0363189zm-0.531996 -1.40665l0.69865 1.26783 1.3732 0.455449 -0.69865 -1.26783 -1.3732 -0.455449z"/>
  <path class="fil2" d="M4.09602 3.19271l0.35324 -0.641016 -0.698571 0.231697 0.106571 0.0353465 0.0399843 0.0132638 0.0200157 0.0363189 0.17876 0.32439zm0.670791 -0.77602l-0.577457 1.04789 -0.0933346 0.16937 -0.0933346 -0.16937 -0.252079 -0.457437 -0.37061 -0.122921 -0.30402 -0.100831 0.30402 -0.100839 1.26015 -0.417953 0.257551 -0.0854213 -0.130882 0.237508zm-2.03617 1.21726l-0.35324 0.641016 0.698571 -0.231697 -0.106571 -0.0353465 -0.0399843 -0.0132638 -0.0200157 -0.0363189 -0.17876 -0.32439zm-0.670791 0.77602l0.577457 -1.04789 0.0933346 -0.16937 0.0933346 0.16937 0.252079 0.457437 0.37061 0.122921 0.30402 0.100831 -0.30402 0.100839 -1.26015 0.417953 -0.257551 0.0854213 0.130882 -0.237508z"/>
  <path class="fil2" d="M3.17388 3.20152l3.93701e-006 -3.93701e-006 3.93701e-006 -3.93701e-006 0.000102362 0.000102362c0.0559173,-0.0632795 0.13174,-0.0993386 0.210224,-0.106555 0.0813071,-0.00747638 0.165547,0.016126 0.233433,0.0725748l0.0075 0.00624803 3.93701e-006 3.93701e-006 3.93701e-006 3.93701e-006 -0.000102362 0.000102362c0.0632795,0.0559173 0.0993386,0.13174 0.106555,0.210224 0.00747638,0.0813071 -0.016126,0.165547 -0.0725748,0.233433l-0.00624803 0.0075 -3.93701e-006 3.93701e-006 -3.93701e-006 3.93701e-006 -0.000102362 -0.000102362c-0.0559173,0.0632795 -0.13174,0.0993386 -0.210224,0.106555 -0.0813071,0.00747638 -0.165547,-0.016126 -0.233433,-0.0725748l-0.0075 -0.00624803 -3.93701e-006 -3.93701e-006 -3.93701e-006 -3.93701e-006 0.000102362 -0.000102362c-0.0632795,-0.0559173 -0.0993386,-0.13174 -0.106555,-0.210224 -0.00747638,-0.0813071 0.016126,-0.165547 0.0725748,-0.233433l0.00624803 -0.0075zm0.156976 0.143465c-0.0187992,0.0226732 -0.0266457,0.050937 -0.0241299,0.0783031 0.00250394,0.0272323 0.0154094,0.0535276 0.0381181,0.0724094l0.000137795 0.000114173c0.0226732,0.0187992 0.050937,0.0266457 0.0783031,0.0241299 0.0272323,-0.00250394 0.0535276,-0.0154094 0.0724094,-0.0381181l0.000114173 -0.000137795c0.0187992,-0.0226732 0.0266457,-0.050937 0.0241299,-0.0783031 -0.00250394,-0.0272323 -0.0154094,-0.0535276 -0.0381181,-0.0724094l-0.000137795 -0.000114173c-0.0226732,-0.0187992 -0.050937,-0.0266457 -0.0783031,-0.0241299 -0.0272323,0.00250394 -0.0535276,0.0154094 -0.0724094,0.0381181l-0.000114173 0.000137795z"/>
  <path class="fil2" d="M3.41333 1.06667c-0.648024,0 -1.2347,0.262657 -1.65935,0.687315 -0.424657,0.424654 -0.687315,1.01133 -0.687315,1.65935 0,0.648024 0.262657,1.2347 0.687315,1.65935 0.424654,0.424657 1.01133,0.687315 1.65935,0.687315 0.648024,0 1.2347,-0.262657 1.65935,-0.687315 0.424657,-0.424654 0.687315,-1.01133 0.687315,-1.65935 0,-0.648024 -0.262657,-1.2347 -0.687315,-1.65935 -0.424654,-0.424657 -1.01133,-0.687315 -1.65935,-0.687315zm-1.81019 0.53648c0.463272,-0.463276 1.10328,-0.749819 1.81019,-0.749819 0.706909,0 1.34691,0.286543 1.81019,0.749819 0.463276,0.463272 0.749819,1.10328 0.749819,1.81019 0,0.706909 -0.286543,1.34691 -0.749819,1.81019 -0.463272,0.463276 -1.10328,0.749819 -1.81019,0.749819 -0.706909,0 -1.34691,-0.286543 -1.81019,-0.749819 -0.463276,-0.463272 -0.749819,-1.10328 -0.749819,-1.81019 0,-0.706909 0.286543,-1.34691 0.749819,-1.81019z"/>
  <circle class="fil3" cx="1.33333" cy="3.41333" r="0.213335"/>
  <circle class="fil3" cx="5.49333" cy="3.41333" r="0.213335"/>
  <circle class="fil3" transform="matrix(-2.64845E-014 -1 -1 2.64845E-014 3.41333 1.33333)" r="0.213335"/>
  <circle class="fil3" transform="matrix(-2.64845E-014 -1 -1 2.64845E-014 3.41333 5.49333)" r="0.213335"/>
 </g>
</svg>
