<svg xmlns="http://www.w3.org/2000/svg" viewBox="0 0 24 24"><title>46.Navigation</title><g id="_46.Navigation" data-name="46.Navigation"><path d="M18,23.447,14.7,20A6,6,0,1,1,21.3,20ZM18,11a3.99,3.99,0,0,0-2.121,7.376l.189.156L18,20.553l2.121-2.177A3.99,3.99,0,0,0,18,11Z"/><rect x="17" y="14" width="2" height="2"/><path d="M12,24A12,12,0,1,1,23.182,7.636l-1.864.728a9.995,9.995,0,1,0-7.5,13.471l.362,1.967A12.029,12.029,0,0,1,12,24Z"/><rect x="2" y="15" width="9" height="2"/><rect x="2" y="7" width="9" height="2"/><rect x="11" y="1" width="2" height="8"/><rect x="6" y="2" width="2" height="20"/><rect x="16" y="2" width="2" height="5"/></g></svg>